<svg width="26" height="28" viewBox="0 0 26 28" fill="none" xmlns="http://www.w3.org/2000/svg">
<g filter="url(#filter0_n_1_1659)">
<g filter="url(#filter1_n_1_1659)">
<path d="M4.69057 19.1785C-1.72626 13.9021 0.700508 8.79838 0.137401 1.77223C0.111485 1.44887 0.388151 1.17983 0.706463 1.24237C4.53174 1.9939 10.9904 5.00988 12.3761 12.3984C13.0019 15.7352 12.6841 20.3092 12.6782 25.9785C12.678 26.1412 12.469 26.2088 12.3721 26.0781C11.2058 24.5071 10.7978 24.2003 4.69057 19.1785Z" fill="url(#paint0_linear_1_1659)"/>
<path d="M4.3002 18.623C-1.20083 14.0759 0.636847 7.70188 0.41443 2.01326C0.402052 1.69669 0.675663 1.44121 0.985968 1.5051C4.57188 2.24343 10.8809 5.36107 12.1631 12.1975C12.7404 15.2757 12.6989 20.5914 12.7075 25.8865C12.7078 26.0529 12.4885 26.1208 12.3906 25.9861C11.1389 24.2625 9.54813 22.9609 4.3002 18.623Z" fill="url(#paint1_linear_1_1659)"/>
<g opacity="0.6">
<path d="M12.7089 25.994L12.6935 19.922C12.6915 19.1235 12.5205 18.3252 12.1331 17.627C7.54543 9.35895 0.415517 11.1415 0.415517 11.1415C0.415517 11.1415 0.51841 15.6787 4.21805 18.6048C6.33343 20.2779 6.96123 20.9876 9.07616 22.6612C10.7611 23.9947 11.856 25.3758 12.3695 26.0982C12.4687 26.2378 12.7093 26.1652 12.7089 25.994Z" fill="url(#paint2_linear_1_1659)"/>
<path d="M12.7089 25.994L12.6935 19.922C12.6915 19.1235 12.5205 18.3252 12.1331 17.627C7.54543 9.35895 0.415517 11.1415 0.415517 11.1415C0.415517 11.1415 0.51841 15.6787 4.21805 18.6048C6.33343 20.2779 6.96123 20.9876 9.07616 22.6612C10.7611 23.9947 11.856 25.3758 12.3695 26.0982C12.4687 26.2378 12.7093 26.1652 12.7089 25.994Z" fill="url(#paint3_radial_1_1659)"/>
</g>
<path d="M12.4867 18.4684C10.4896 14.1259 6.13585 10.3611 1.17066 11.0577C1.08759 11.0683 0.999959 11.0458 0.91861 11.0585C0.999982 11.0459 1.08776 11.0688 1.17086 11.0584C6.04638 10.4949 10.4253 14.244 12.2125 18.5985C12.32 18.8375 12.6014 19.4375 12.6014 19.4375L12.5236 18.9324C12.5236 18.9324 12.6054 18.7062 12.4867 18.4684Z" fill="url(#paint4_linear_1_1659)"/>
<path d="M12.5704 18.4108C10.5733 14.0682 6.22061 10.3606 1.25542 11.0573C1.17235 11.0678 1.08472 11.0453 1.00337 11.0581C1.08474 11.0454 1.17252 11.0683 1.25562 11.0579C6.23673 10.3728 10.509 14.1864 12.2962 18.5408C12.4037 18.7798 12.6851 19.3798 12.6851 19.3798L12.6074 18.8748C12.6074 18.8748 12.6891 18.6485 12.5704 18.4108Z" fill="#3F3F3F"/>
</g>
<path d="M0.738281 1.24359C4.56352 1.99512 11.0224 5.01147 12.4082 12.3998C13.0328 15.7302 12.809 20.4837 12.8076 26.1498C12.8076 26.3156 12.5926 26.3805 12.499 26.2436C12.4373 26.1532 12.3749 26.0686 12.3164 25.9848C12.0539 25.6239 11.6704 25.1317 11.1631 24.5776C10.2176 23.6191 8.60478 22.3021 4.75488 19.2114C-1.75778 13.9828 0.728541 8.80445 0.168945 1.77386C0.143244 1.45065 0.420159 1.18138 0.738281 1.24359Z" fill="url(#paint5_radial_1_1659)"/>
<g filter="url(#filter2_n_1_1659)">
<path d="M21.1058 19.0747C27.3761 14.2075 25.472 9.12014 25.7156 1.62365C25.7236 1.37555 25.5523 1.15483 25.3041 1.15795C22.5151 1.19302 14.5121 4.98335 13.6239 12.4566C13.204 15.9898 13.0559 20.3655 13.1915 26.0415C13.1952 26.1948 13.3847 26.2626 13.4831 26.145C14.887 24.4656 15.0933 23.7419 21.1058 19.0747Z" fill="url(#paint6_radial_1_1659)"/>
<path d="M21.1058 19.0747C27.3761 14.2075 25.472 9.12014 25.7156 1.62365C25.7236 1.37555 25.5523 1.15483 25.3041 1.15795C22.5151 1.19302 14.5121 4.98335 13.6239 12.4566C13.204 15.9898 13.0559 20.3655 13.1915 26.0415C13.1952 26.1948 13.3847 26.2626 13.4831 26.145C14.887 24.4656 15.0933 23.7419 21.1058 19.0747Z" fill="url(#paint7_radial_1_1659)"/>
<path d="M21.649 18.4353C27.1501 13.8882 25.3124 7.51416 25.5348 1.82555C25.5472 1.50898 25.2736 1.2535 24.9633 1.31739C21.3773 2.05572 15.0684 5.17336 13.7862 12.0098C13.2088 15.088 13.2503 20.4037 13.2417 25.6987C13.2414 25.8652 13.4608 25.9331 13.5586 25.7984C14.8103 24.0748 16.4011 22.7732 21.649 18.4353Z" fill="url(#paint8_linear_1_1659)"/>
<path d="M13.2402 25.8641L13.2557 19.7343C13.2577 18.9358 13.4288 18.1375 13.8161 17.4393C18.4038 9.17123 25.5337 10.9538 25.5337 10.9538C25.5337 10.9538 25.3934 15.5948 21.6938 18.5209C19.5784 20.194 19.1152 20.554 16.9851 22.3546C15.2903 23.7872 14.1026 25.2522 13.5641 25.9695C13.4641 26.1027 13.2397 26.0306 13.2402 25.8641Z" fill="url(#paint9_linear_1_1659)"/>
<path d="M13.2402 25.8641L13.2557 19.7343C13.2577 18.9358 13.4288 18.1375 13.8161 17.4393C18.4038 9.17123 25.5337 10.9538 25.5337 10.9538C25.5337 10.9538 25.3934 15.5948 21.6938 18.5209C19.5784 20.194 19.1152 20.554 16.9851 22.3546C15.2903 23.7872 14.1026 25.2522 13.5641 25.9695C13.4641 26.1027 13.2397 26.0306 13.2402 25.8641Z" fill="url(#paint10_radial_1_1659)"/>
<path d="M13.4626 18.2807C15.4596 13.9382 19.8134 10.1734 24.7786 10.87C24.8616 10.8806 24.9493 10.8581 25.0306 10.8708C24.9492 10.8582 24.8615 10.8811 24.7784 10.8707C19.9028 10.3072 15.524 14.0563 13.7367 18.4108C13.6292 18.6498 13.3478 19.2498 13.3478 19.2498L13.4256 18.7447C13.4256 18.7447 13.3438 18.5185 13.4626 18.2807Z" fill="url(#paint11_linear_1_1659)"/>
<path d="M13.4548 18.1727C15.4519 13.8302 19.7288 10.1731 24.694 10.8698C24.7771 10.8803 24.8647 10.8578 24.9461 10.8706C24.8647 10.8579 24.7769 10.8808 24.6938 10.8704C19.7127 10.1852 15.4405 13.9989 13.6532 18.3533C13.5457 18.5923 13.2643 19.1923 13.2643 19.1923L13.2642 18.7395C13.2642 18.7395 13.3361 18.4105 13.4548 18.1727Z" fill="url(#paint12_linear_1_1659)"/>
</g>
</g>
<defs>
<filter id="filter0_n_1_1659" x="0.132812" y="1.15792" width="25.6738" height="25.1599" filterUnits="userSpaceOnUse" color-interpolation-filters="sRGB">
<feFlood flood-opacity="0" result="BackgroundImageFix"/>
<feBlend mode="normal" in="SourceGraphic" in2="BackgroundImageFix" result="shape"/>
<feTurbulence type="fractalNoise" baseFrequency="29.732398986816406 29.732398986816406" stitchTiles="stitch" numOctaves="3" result="noise" seed="6270" />
<feColorMatrix in="noise" type="luminanceToAlpha" result="alphaNoise" />
<feComponentTransfer in="alphaNoise" result="coloredNoise1">
<feFuncA type="discrete" tableValues="0 0 0 0 1 1 1 1 1 1 1 1 1 1 1 1 1 1 1 1 1 1 1 1 1 1 1 1 1 1 1 1 1 1 1 1 1 1 1 1 1 1 1 1 1 1 1 0 0 0 0 0 0 0 0 0 0 0 0 0 0 0 0 0 0 0 0 0 0 0 0 0 0 0 0 0 0 0 0 0 0 0 0 0 0 0 0 0 0 0 0 0 0 0 0 0 0 0 0 0 "/>
</feComponentTransfer>
<feComposite operator="in" in2="shape" in="coloredNoise1" result="noise1Clipped" />
<feFlood flood-color="rgba(0, 0, 0, 0.25)" result="color1Flood" />
<feComposite operator="in" in2="noise1Clipped" in="color1Flood" result="color1" />
<feMerge result="effect1_noise_1_1659">
<feMergeNode in="shape" />
<feMergeNode in="color1" />
</feMerge>
</filter>
<filter id="filter1_n_1_1659" x="0.132812" y="1.23327" width="12.6309" height="24.9385" filterUnits="userSpaceOnUse" color-interpolation-filters="sRGB">
<feFlood flood-opacity="0" result="BackgroundImageFix"/>
<feBlend mode="normal" in="SourceGraphic" in2="BackgroundImageFix" result="shape"/>
<feTurbulence type="fractalNoise" baseFrequency="19.821598052978516 19.821598052978516" stitchTiles="stitch" numOctaves="3" result="noise" seed="5092" />
<feColorMatrix in="noise" type="luminanceToAlpha" result="alphaNoise" />
<feComponentTransfer in="alphaNoise" result="coloredNoise1">
<feFuncA type="discrete" tableValues="1 1 1 1 1 1 1 1 1 1 1 1 1 1 1 1 1 1 1 1 1 1 1 1 1 1 1 1 1 1 1 1 1 1 1 1 1 1 1 1 1 1 1 1 1 1 1 1 1 1 1 0 0 0 0 0 0 0 0 0 0 0 0 0 0 0 0 0 0 0 0 0 0 0 0 0 0 0 0 0 0 0 0 0 0 0 0 0 0 0 0 0 0 0 0 0 0 0 0 0 "/>
</feComponentTransfer>
<feComposite operator="in" in2="shape" in="coloredNoise1" result="noise1Clipped" />
<feFlood flood-color="rgba(131, 123, 123, 0.25)" result="color1Flood" />
<feComposite operator="in" in2="noise1Clipped" in="color1Flood" result="color1" />
<feMerge result="effect1_noise_1_1659">
<feMergeNode in="shape" />
<feMergeNode in="color1" />
</feMerge>
</filter>
<filter id="filter2_n_1_1659" x="13.1426" y="1.15792" width="12.6641" height="25.0467" filterUnits="userSpaceOnUse" color-interpolation-filters="sRGB">
<feFlood flood-opacity="0" result="BackgroundImageFix"/>
<feBlend mode="normal" in="SourceGraphic" in2="BackgroundImageFix" result="shape"/>
<feTurbulence type="fractalNoise" baseFrequency="19.821598052978516 19.821598052978516" stitchTiles="stitch" numOctaves="3" result="noise" seed="5092" />
<feColorMatrix in="noise" type="luminanceToAlpha" result="alphaNoise" />
<feComponentTransfer in="alphaNoise" result="coloredNoise1">
<feFuncA type="discrete" tableValues="1 1 1 1 1 1 1 1 1 1 1 1 1 1 1 1 1 1 1 1 1 1 1 1 1 1 1 1 1 1 1 1 1 1 1 1 1 1 1 1 1 1 1 1 1 1 1 1 1 1 1 0 0 0 0 0 0 0 0 0 0 0 0 0 0 0 0 0 0 0 0 0 0 0 0 0 0 0 0 0 0 0 0 0 0 0 0 0 0 0 0 0 0 0 0 0 0 0 0 0 "/>
</feComponentTransfer>
<feComposite operator="in" in2="shape" in="coloredNoise1" result="noise1Clipped" />
<feFlood flood-color="rgba(131, 123, 123, 0.25)" result="color1Flood" />
<feComposite operator="in" in2="noise1Clipped" in="color1Flood" result="color1" />
<feMerge result="effect1_noise_1_1659">
<feMergeNode in="shape" />
<feMergeNode in="color1" />
</feMerge>
</filter>
<linearGradient id="paint0_linear_1_1659" x1="0.599417" y1="0.544143" x2="13.296" y2="27.1986" gradientUnits="userSpaceOnUse">
<stop stop-color="#F0F0F0"/>
<stop offset="1" stop-color="#686868"/>
</linearGradient>
<linearGradient id="paint1_linear_1_1659" x1="-1.53244" y1="2.86674" x2="12.5226" y2="23.839" gradientUnits="userSpaceOnUse">
<stop stop-color="#F2F2F2"/>
<stop offset="0.226398" stop-color="#D4D4D4"/>
<stop offset="0.730106" stop-color="#404040"/>
<stop offset="1" stop-color="#343434"/>
</linearGradient>
<linearGradient id="paint2_linear_1_1659" x1="2.78724" y1="10.7174" x2="13.6021" y2="24.5597" gradientUnits="userSpaceOnUse">
<stop stop-color="#D0CFCF"/>
<stop offset="0.270601" stop-color="#D6D6D6"/>
<stop offset="1" stop-color="#888888"/>
</linearGradient>
<radialGradient id="paint3_radial_1_1659" cx="0" cy="0" r="1" gradientUnits="userSpaceOnUse" gradientTransform="translate(2.41904 11.6108) rotate(84.8056) scale(13.0022 9.70146)">
<stop stop-color="#DBDBDB"/>
<stop offset="1" stop-color="#CBCBCA" stop-opacity="0"/>
</radialGradient>
<linearGradient id="paint4_linear_1_1659" x1="6.21567" y1="11.6464" x2="6.93311" y2="19.6599" gradientUnits="userSpaceOnUse">
<stop stop-color="#C8C8C8"/>
<stop offset="1" stop-color="#828282"/>
</linearGradient>
<radialGradient id="paint5_radial_1_1659" cx="0" cy="0" r="1" gradientTransform="matrix(5.4655 12.6966 -10.7629 4.63295 1.07337 9.51044)" gradientUnits="userSpaceOnUse">
<stop stop-color="white"/>
<stop offset="1" stop-color="#A5A5A5" stop-opacity="0"/>
</radialGradient>
<radialGradient id="paint6_radial_1_1659" cx="0" cy="0" r="1" gradientUnits="userSpaceOnUse" gradientTransform="translate(25.7316 7.49553) rotate(-152.21) scale(7.03341 31.3168)">
<stop stop-color="#3A3A3A"/>
<stop offset="1" stop-color="white"/>
</radialGradient>
<radialGradient id="paint7_radial_1_1659" cx="0" cy="0" r="1" gradientUnits="userSpaceOnUse" gradientTransform="translate(16.9869 5.30937) rotate(101.541) scale(16.3913 18.5545)">
<stop stop-color="white"/>
<stop offset="1" stop-color="#292929" stop-opacity="0.75"/>
</radialGradient>
<linearGradient id="paint8_linear_1_1659" x1="27.4817" y1="2.67903" x2="10.3421" y2="21.8507" gradientUnits="userSpaceOnUse">
<stop stop-color="#696969"/>
<stop offset="0.269894" stop-color="#868685"/>
<stop offset="0.773602" stop-color="#BBB9B9"/>
</linearGradient>
<linearGradient id="paint9_linear_1_1659" x1="23.162" y1="10.5297" x2="13.2858" y2="24.4567" gradientUnits="userSpaceOnUse">
<stop stop-color="#8A8888"/>
<stop offset="0.270601" stop-color="#666565"/>
<stop offset="1" stop-color="#424141"/>
</linearGradient>
<radialGradient id="paint10_radial_1_1659" cx="0" cy="0" r="1" gradientUnits="userSpaceOnUse" gradientTransform="translate(23.5453 11.5295) rotate(95.3041) scale(12.8976 9.62342)">
<stop stop-color="#898887"/>
<stop offset="1" stop-color="#646060" stop-opacity="0"/>
</radialGradient>
<linearGradient id="paint11_linear_1_1659" x1="13.2857" y1="19.0755" x2="19.3636" y2="10.6143" gradientUnits="userSpaceOnUse">
<stop stop-color="#3B3B3B"/>
<stop offset="1" stop-color="#484848" stop-opacity="0"/>
</linearGradient>
<linearGradient id="paint12_linear_1_1659" x1="13.3691" y1="18.5721" x2="19.2785" y2="10.6141" gradientUnits="userSpaceOnUse">
<stop stop-color="#DEDEDE"/>
<stop offset="1" stop-color="#999999"/>
</linearGradient>
</defs>
</svg>
